<svg width="512" height="512" viewBox="0 0 512 512" fill="none" xmlns="http://www.w3.org/2000/svg">
<rect width="512" height="512" rx="96" fill="#E12AFB"/>
<path d="M197.593 153.153L197.844 153.157C200.44 153.238 202.842 154.577 204.275 156.755L266.683 251.603C268.439 254.272 268.439 257.729 266.683 260.398L204.275 355.245C202.796 357.493 200.284 358.847 197.593 358.847H119.737C116.835 358.847 114.16 357.275 112.748 354.74C111.336 352.204 111.408 349.103 112.936 346.635L169.071 255.999L112.936 165.365C111.408 162.897 111.336 159.796 112.748 157.26C114.16 154.725 116.835 153.153 119.737 153.153H197.593Z" fill="white"/>
<path d="M336.538 156.755C335.058 154.507 332.547 153.153 329.855 153.153H252C249.098 153.153 246.423 154.725 245.01 157.26C243.598 159.796 243.671 162.897 245.199 165.365L301.334 255.999L245.199 346.635C243.671 349.102 243.598 352.204 245.01 354.74C246.423 357.275 249.098 358.847 252 358.847H329.855C332.547 358.847 335.058 357.493 336.538 355.244L398.946 260.398C400.702 257.729 400.702 254.271 398.946 251.603L336.538 156.755Z" fill="white"/>
</svg>
